<svg width="12" height="10" viewBox="0 0 12 10" fill="none" xmlns="http://www.w3.org/2000/svg">
<path d="M11.7832 1.60752L10.7303 0.554634C10.586 0.410156 10.4104 0.337891 10.204 0.337891C9.99744 0.337891 9.82186 0.410156 9.67749 0.554634L4.59871 5.64109L2.32257 3.35719C2.17803 3.21266 2.00256 3.14048 1.79618 3.14048C1.58966 3.14048 1.41419 3.21266 1.26965 3.35719L0.21677 4.4101C0.0722387 4.55461 0 4.73013 0 4.93663C0 5.14296 0.0722387 5.31864 0.21677 5.46312L3.0193 8.2656L4.07227 9.31848C4.21672 9.46307 4.39224 9.53525 4.59871 9.53525C4.80509 9.53525 4.98062 9.46288 5.12515 9.31848L6.17809 8.2656L11.7832 2.66048C11.9276 2.51595 12 2.34045 12 2.13396C12.0001 1.92758 11.9276 1.75205 11.7832 1.60752Z" fill="#00BB83"/>
</svg>
