<svg width="8" height="20" viewBox="0 0 8 20" fill="none" xmlns="http://www.w3.org/2000/svg">
<g clip-path="url(#clip0_2962_2105)">
<path d="M5.83162 14.3379L7.81143 12.3581C7.93719 12.2325 7.99998 12.0798 7.99998 11.9002C7.99998 11.7206 7.93702 11.568 7.81143 11.4423L6.89563 10.5264C6.76994 10.4007 6.61734 10.3379 6.43779 10.3379C6.25814 10.3379 6.10558 10.4007 5.97982 10.5264L4.00004 12.5062L2.02021 10.5264C1.89459 10.4007 1.74196 10.3379 1.5623 10.3379C1.38278 10.3379 1.23013 10.4007 1.10439 10.5264L0.188551 11.4423C0.0629052 11.5679 0 11.7206 0 11.9002C0 12.0798 0.0628344 12.2324 0.188551 12.3581L2.16833 14.3379L0.188551 16.3177C0.0629052 16.4435 0 16.596 0 16.7757C0 16.9552 0.0628344 17.1079 0.188551 17.2335L1.10441 18.1493C1.23013 18.2751 1.38281 18.3379 1.56232 18.3379C1.74196 18.3379 1.89452 18.2749 2.02023 18.1493L4.00006 16.1695L5.98 18.1493C6.10567 18.2751 6.25816 18.3379 6.43798 18.3379C6.6175 18.3379 6.77013 18.2749 6.89582 18.1493L7.81145 17.2335C7.93721 17.1079 8 16.9552 8 16.7757C8 16.596 7.93721 16.4435 7.81145 16.3177L5.83162 14.3379Z" fill="#FD387F"/>
</g>
<defs>
<clipPath id="clip0_2962_2105">
<rect width="8" height="8" fill="white" transform="translate(0 10.3379)"/>
</clipPath>
</defs>
</svg>
