<svg width="22" height="22" viewBox="0 0 22 22" fill="none" xmlns="http://www.w3.org/2000/svg">
<path d="M10.8062 2.19392C13.6133 2.19392 13.9457 2.20623 15.0497 2.25546C16.0757 2.30059 16.6297 2.47288 16.9991 2.61647C17.4875 2.80518 17.8404 3.03491 18.2057 3.40002C18.575 3.76923 18.8007 4.11793 18.9895 4.60611C19.1332 4.97533 19.3055 5.53325 19.3507 6.55474C19.3999 7.66237 19.4122 7.99467 19.4122 10.7966C19.4122 13.6026 19.3999 13.9349 19.3507 15.0384C19.3055 16.064 19.1332 16.6178 18.9895 16.987C18.8007 17.4752 18.5709 17.828 18.2057 18.1931C17.8363 18.5624 17.4875 18.788 16.9991 18.9767C16.6297 19.1203 16.0716 19.2926 15.0497 19.3377C13.9416 19.3869 13.6092 19.3992 10.8062 19.3992C7.99909 19.3992 7.66667 19.3869 6.5627 19.3377C5.53671 19.2926 4.98268 19.1203 4.61332 18.9767C4.12495 18.788 3.77201 18.5583 3.40675 18.1931C3.03739 17.8239 2.81168 17.4752 2.62289 16.987C2.47926 16.6178 2.30689 16.0599 2.26175 15.0384C2.2125 13.9308 2.20019 13.5985 2.20019 10.7966C2.20019 7.99056 2.2125 7.65827 2.26175 6.55474C2.30689 5.52915 2.47926 4.97533 2.62289 4.60611C2.81168 4.11793 3.0415 3.76513 3.40675 3.40002C3.77611 3.03081 4.12495 2.80518 4.61332 2.61647C4.98268 2.47288 5.54082 2.30059 6.5627 2.25546C7.66667 2.20623 7.99909 2.19392 10.8062 2.19392ZM10.8062 0.302734C7.95395 0.302734 7.5969 0.315041 6.47652 0.36427C5.36024 0.413498 4.5928 0.594002 3.92796 0.852451C3.23439 1.12321 2.64752 1.48011 2.06475 2.06675C1.47789 2.64929 1.12084 3.23592 0.84998 3.92512C0.59143 4.59381 0.410856 5.35685 0.361608 6.47269C0.312361 7.59674 0.300049 7.95364 0.300049 10.8048C0.300049 13.6559 0.312361 14.0128 0.361608 15.1328C0.410856 16.2486 0.59143 17.0158 0.84998 17.6803C1.12084 18.3736 1.47789 18.9603 2.06475 19.5428C2.64752 20.1254 3.23439 20.4864 3.92385 20.753C4.5928 21.0115 5.35614 21.192 6.47242 21.2412C7.5928 21.2904 7.94984 21.3027 10.8021 21.3027C13.6544 21.3027 14.0114 21.2904 15.1318 21.2412C16.2481 21.192 17.0155 21.0115 17.6804 20.753C18.3698 20.4864 18.9567 20.1254 19.5394 19.5428C20.1222 18.9603 20.4834 18.3736 20.7501 17.6845C21.0087 17.0158 21.1892 16.2527 21.2385 15.1369C21.2877 14.0169 21.3 13.66 21.3 10.8089C21.3 7.95775 21.2877 7.60084 21.2385 6.48089C21.1892 5.36505 21.0087 4.59791 20.7501 3.93333C20.4916 3.23592 20.1345 2.64929 19.5477 2.06675C18.9649 1.48422 18.378 1.12321 17.6886 0.856553C17.0196 0.598105 16.2563 0.417601 15.14 0.368372C14.0155 0.315041 13.6585 0.302734 10.8062 0.302734Z" fill="#7E77AC"/>
<path d="M10.8062 5.41018C7.82672 5.41018 5.40949 7.82647 5.40949 10.8048C5.40949 13.7831 7.82672 16.1994 10.8062 16.1994C13.7857 16.1994 16.2029 13.7831 16.2029 10.8048C16.2029 7.82647 13.7857 5.41018 10.8062 5.41018ZM10.8062 14.3041C8.87324 14.3041 7.30552 12.737 7.30552 10.8048C7.30552 8.87257 8.87324 7.30547 10.8062 7.30547C12.7392 7.30547 14.3069 8.87257 14.3069 10.8048C14.3069 12.737 12.7392 14.3041 10.8062 14.3041Z" fill="#7E77AC"/>
<path d="M17.6762 5.19682C17.6762 5.89422 17.1099 6.45624 16.4163 6.45624C15.7187 6.45624 15.1564 5.89012 15.1564 5.19682C15.1564 4.49941 15.7228 3.93739 16.4163 3.93739C17.1099 3.93739 17.6762 4.50352 17.6762 5.19682Z" fill="#7E77AC"/>
</svg>
