<svg width="28" height="35" viewBox="0 0 28 35" fill="none" xmlns="http://www.w3.org/2000/svg">
<g filter="url(#filter0_d_3263_1182)">
<path fill-rule="evenodd" clip-rule="evenodd" d="M11.499 18.9473V15.659H14.813C15.6666 15.659 16.4447 16.3926 16.4447 17.3031C16.4447 18.2137 15.7167 18.9473 14.813 18.9473H11.499ZM10.5873 2.63757H14.6516V4.07269H14.863C17.8758 4.07269 20.4362 6.67834 20.4362 9.7135C20.4362 11.0037 19.9594 12.1926 19.2313 13.1283C20.5118 14.1655 21.3654 15.7592 21.3654 17.4795C21.3654 20.49 18.8301 23.0447 15.8423 23.0447H14.6516V24.2387H10.5873V23.0447H6.55322V4.07269H10.5873V2.63757ZM11.499 11.4848V8.19649H13.8837C14.7874 8.19649 15.5155 8.93009 15.5155 9.84063C15.5155 10.7512 14.7874 11.4848 13.8837 11.4848H11.499Z" fill="#7E77AC"/>
</g>
<defs>
<filter id="filter0_d_3263_1182" x="0.553223" y="0.637573" width="26.8123" height="33.6012" filterUnits="userSpaceOnUse" color-interpolation-filters="sRGB">
<feFlood flood-opacity="0" result="BackgroundImageFix"/>
<feColorMatrix in="SourceAlpha" type="matrix" values="0 0 0 0 0 0 0 0 0 0 0 0 0 0 0 0 0 0 127 0" result="hardAlpha"/>
<feOffset dy="4"/>
<feGaussianBlur stdDeviation="3"/>
<feComposite in2="hardAlpha" operator="out"/>
<feColorMatrix type="matrix" values="0 0 0 0 0 0 0 0 0 0 0 0 0 0 0 0 0 0 0.25 0"/>
<feBlend mode="normal" in2="BackgroundImageFix" result="effect1_dropShadow_3263_1182"/>
<feBlend mode="normal" in="SourceGraphic" in2="effect1_dropShadow_3263_1182" result="shape"/>
</filter>
</defs>
</svg>
