<svg width="21" height="23" viewBox="0 0 21 23" fill="none" xmlns="http://www.w3.org/2000/svg">
<path fill-rule="evenodd" clip-rule="evenodd" d="M13.5837 0.983792C12.1368 1.81745 11.2806 3.32327 11.2806 4.91117C11.2806 5.74483 11.6218 6.58542 12.0494 7.33486C12.3906 8.00435 12.5579 9.17328 11.367 9.75855C10.5167 10.2575 9.40512 9.92486 8.89604 9.08906C8.38751 8.41958 7.79042 7.74956 7.02219 7.25064C5.57537 6.41698 3.86886 6.41698 2.42204 7.25064C0.975222 8.0843 0.120605 9.59384 0.120605 11.1823C0.120605 12.7707 0.970875 14.276 2.4215 15.1118C3.86831 15.9454 5.57483 15.9454 7.02164 15.1118C7.79042 14.6928 8.38697 14.0276 8.80966 13.2734C9.15085 12.6881 10.0891 11.9339 11.2806 12.6039C12.1303 13.1028 12.3862 14.1939 11.963 15.0276C11.536 15.7813 11.2806 16.6176 11.2806 17.4513C11.2806 19.0413 12.1303 20.545 13.5837 21.3786C15.0305 22.2123 16.737 22.2123 18.1838 21.3786C19.6306 20.545 20.4874 19.0392 20.4874 17.4513C20.4874 15.8634 19.635 14.3575 18.1838 13.5218C17.4156 13.1028 16.5631 12.9365 15.627 12.9365C14.8583 12.9365 13.839 12.4376 13.839 11.1823C13.839 10.178 14.6078 9.42807 15.627 9.42807C16.4773 9.42807 17.415 9.26177 18.1838 8.8428C19.6306 8.00914 20.4874 6.50333 20.4874 4.91543C20.4874 3.32753 19.635 1.82172 18.1838 0.988056C17.5014 0.569094 16.6512 0.402788 15.8829 0.402788C15.119 0.398524 14.2622 0.569094 13.5842 0.983792H13.5837Z" fill="#7E77AC"/>
</svg>
