<svg width="23" height="23" viewBox="0 0 23 23" fill="none" xmlns="http://www.w3.org/2000/svg">
<path d="M5.12996 11.5219L2.59013 14.0637L0.0524902 11.5219L2.59013 8.98007L5.12996 11.5219ZM11.2875 5.34985L15.6361 9.70787L18.1738 7.16606L11.2875 0.268433L4.40116 7.16606L6.93879 9.70787L11.2875 5.34985ZM19.987 8.98007L17.4493 11.5219L19.987 14.0637L22.5224 11.5219L19.987 8.98007ZM11.2875 17.6939L6.93879 13.3381L4.40116 15.8777L11.2875 22.7753L18.1738 15.8777L15.6361 13.3381L11.2875 17.6939ZM11.2875 14.0637L13.8251 11.5219L11.2875 8.98007L8.74982 11.5219L11.2875 14.0637Z" fill="#7E77AC"/>
</svg>
