<svg width="19" height="20" viewBox="0 0 19 20" fill="none" xmlns="http://www.w3.org/2000/svg">
<path d="M5.96596 6.29441H0.0900879V0.87146H18.6054V6.29441H12.7295V10.1291H5.96596V6.29441Z" fill="#7E77AC"/>
<path d="M13.0509 11.9808H6.26196V19.3869H13.0509V11.9808Z" fill="#7E77AC"/>
<path d="M14.1248 7.81061C15.3108 7.9035 16.7341 8.39264 17.3614 8.78045C18.16 9.27349 18.6054 9.86461 18.6054 10.5304C18.6054 11.6283 17.3739 12.5305 15.384 13.1015C13.8105 13.553 11.6737 13.8323 9.34773 13.8323C7.02179 13.8323 4.88495 13.553 3.31148 13.1015C1.32093 12.5305 0.0900879 11.6283 0.0900879 10.5304C0.0900879 9.79706 0.627097 9.15721 1.57526 8.64014C2.3139 8.23739 3.34311 7.9009 4.56341 7.66055L4.62534 9.46836C2.758 9.83668 3.08021 10.7097 4.43822 11.0995C5.66576 11.4516 7.4 11.6698 9.34839 11.6698C11.2968 11.6698 13.031 11.4516 14.2586 11.0995C15.9058 10.6266 15.3108 9.7347 14.0629 9.43199L14.1255 7.81061H14.1248Z" fill="#7E77AC"/>
</svg>
