<svg width="22" height="19" viewBox="0 0 22 19" fill="none" xmlns="http://www.w3.org/2000/svg">
<path fill-rule="evenodd" clip-rule="evenodd" d="M4.40642 2.23764H2.35754C1.34405 2.23764 0.522461 3.05923 0.522461 4.07272V15.542C0.522461 16.5555 1.34405 17.377 2.35754 17.377H6.5632L2.76771 3.2121L4.54026 2.73714L4.40642 2.23764ZM11.8294 17.377H10.3628L10.1147 16.451L8.34216 16.926L5.01522 4.50969L6.78777 4.03474L6.42396 2.677L8.0637 2.23764H8.20605L8.56032 3.55979L9.44659 3.32231L9.15596 2.23764H11.0558L11.2262 2.87358C13.1726 2.58989 15.128 3.78169 15.6217 5.62439C15.8213 6.36943 15.75 7.13174 15.4967 7.81431C15.4629 7.90533 15.4259 7.99494 15.3859 8.08289C15.4771 8.12055 15.5669 8.16143 15.6551 8.20543C16.5993 8.67674 17.3514 9.50464 17.6273 10.5344C18.1552 12.5046 16.8468 14.6472 14.7771 15.2018L14.5461 15.2637L14.8924 16.5563L13.1199 17.0313L12.7735 15.7386L11.8873 15.9761L12.2336 17.2687L11.8294 17.377ZM17.0122 17.377H19.7908C20.8043 17.377 21.6259 16.5555 21.6259 15.542V4.07272C21.6259 3.05923 20.8043 2.23764 19.7908 2.23764H15.4356C16.3606 2.95126 17.0717 3.94575 17.3943 5.14944C17.5843 5.85867 17.6133 6.56465 17.5229 7.23324C18.3969 7.93111 19.0873 8.89292 19.3998 10.0594C20.0671 12.5496 18.8395 15.0797 16.7353 16.3437L17.0122 17.377ZM10.4731 11.1743L11.0497 13.3264L13.3455 12.7112C13.9715 12.5435 14.3472 11.9282 14.1876 11.3323C14.0279 10.7364 13.3602 10.4007 12.7689 10.5592L10.4731 11.1743ZM11.3932 7.99987C11.4339 7.98896 11.4735 7.97615 11.5121 7.96158C12.0658 7.75217 12.3845 7.17812 12.2352 6.62098C12.0859 6.06383 11.5229 5.72605 10.9386 5.82155C10.898 5.82819 10.8572 5.83693 10.8165 5.84784L9.16449 6.2905L9.74113 8.44253L11.3932 7.99987Z" fill="#7E77AC"/>
<path fill-rule="evenodd" clip-rule="evenodd" d="M8.19647 2.20225L6.42392 2.67721L6.78772 4.03494L5.01517 4.50989L8.34211 16.9262L10.1147 16.4513L10.461 17.7439L12.2336 17.2689L11.8872 15.9763L12.7735 15.7388L13.1198 17.0315L14.8924 16.5565L14.546 15.2639L14.777 15.202C16.8468 14.6474 18.1552 12.5048 17.6272 10.5346C17.3256 9.40873 16.4547 8.52415 15.3858 8.0831C15.7261 7.33555 15.8479 6.46899 15.6217 5.62459C15.1279 3.78189 13.1726 2.59009 11.2261 2.87378L10.8553 1.48982L9.08274 1.96478L9.44655 3.32251L8.56027 3.55999L8.19647 2.20225ZM11.0497 13.3266L10.4731 11.1746L12.7688 10.5594C13.3602 10.4009 14.0278 10.7366 14.1875 11.3325C14.3472 11.9284 13.9715 12.5437 13.3455 12.7114L11.0497 13.3266ZM9.74108 8.44273L9.16445 6.29071L10.8165 5.84805C11.4425 5.68031 12.0755 6.02527 12.2352 6.62118C12.3948 7.21709 12.0191 7.83233 11.3931 8.00007L9.74108 8.44273Z" fill="#7E77AC"/>
</svg>
