<svg width="97" height="12" viewBox="0 0 97 12" fill="none" xmlns="http://www.w3.org/2000/svg">
<path d="M2.90117 7.33068V9.29278H4.4266C5.00772 9.32916 5.5162 8.92942 5.55255 8.348V8.31166C5.55255 7.69395 5.04408 7.29424 4.28139 7.29424L2.90117 7.33068ZM2.90117 4.46015V6.20425H4.31764C4.82612 6.2406 5.29828 5.87723 5.33454 5.36854V5.29585C5.33454 4.82351 4.8624 4.46014 4.20859 4.46014L2.90117 4.46015ZM0.867188 3.29745H3.62753C4.86244 3.29745 5.29828 3.3338 5.66151 3.47912C6.35161 3.80615 6.75111 4.46017 6.75111 5.22331C6.75111 5.95 6.5332 6.31337 5.80673 6.67675C6.56948 6.93109 7.07799 7.65781 7.00538 8.45722C7.00538 9.65628 6.061 10.4556 4.68087 10.4556H0.867281V9.2929H1.41208V4.46027H0.867281L0.867188 3.29745Z" fill="#DDDFFF"/>
<path d="M11.6541 7.07644C11.6541 6.45873 11.1457 5.98638 10.5645 5.98638H10.5283C9.9108 5.98638 9.40233 6.45873 9.29337 7.04017L11.6541 7.07644ZM13.0349 8.67516C12.7804 9.87432 11.7997 10.601 10.4922 10.601C8.96677 10.601 7.84082 9.40193 7.84082 7.73047C7.84082 6.05902 8.96677 4.85995 10.4922 4.85995C11.3275 4.85995 12.1266 5.25962 12.5988 5.98638C12.962 6.60409 13.1799 7.29445 13.1436 8.02122H9.22095C9.36625 9.4383 10.2743 9.51103 10.5286 9.51103C11.037 9.54742 11.5092 9.18405 11.6545 8.71162L13.0346 8.67528" fill="#DDDFFF"/>
<path d="M17.5747 6.89479H20.0808V10.4556H19.2817V9.32929C19.1365 9.58356 18.9548 9.80157 18.7369 10.0196C18.2648 10.4193 17.6837 10.6374 17.1025 10.6374C15.4318 10.6374 14.1243 9.00227 14.1243 6.89479C14.1243 4.78731 15.4318 3.11585 17.0663 3.11585C17.9742 3.07955 18.7733 3.58824 19.2091 4.35128V3.22486H19.9718V5.51398H19.1729C19.1002 5.18696 18.9548 4.89628 18.7733 4.6419C18.41 4.16954 17.829 3.87886 17.2478 3.84252C16.3762 3.84252 15.0686 4.6056 15.0686 6.82205C15.0686 8.56614 16.0129 9.83794 17.2478 9.83794C18.2285 9.80157 19.0276 9.07491 19.2091 8.13021C19.2455 7.94855 19.2455 7.73051 19.2455 7.54884H17.5384L17.5747 6.89479Z" fill="#DDDFFF"/>
<path d="M24.6203 7.65773L24.1121 7.73047C22.4414 7.94847 21.8966 8.23915 21.8966 8.92953C21.9329 9.54729 22.4414 9.98332 23.0225 9.98332C23.8215 9.94695 24.5116 9.36554 24.6206 8.56615L24.6203 7.65773ZM26.1821 10.492H24.6203V9.51093C24.2571 10.2014 23.5307 10.601 22.768 10.601C21.86 10.6736 21.0609 9.94698 20.9883 9.03854V8.92955C20.9883 7.87586 21.8963 7.3671 24.0755 7.14909L24.584 7.11275V6.56772C24.584 5.95001 24.1119 5.5503 23.3491 5.5503C22.5864 5.5503 22.1868 5.80464 22.0415 6.53135H21.2062C21.2788 6.09535 21.4967 5.69564 21.8236 5.40493C22.2232 5.0779 22.768 4.93254 23.2764 4.93254C24.4024 4.93254 25.3468 5.44127 25.3468 6.82201V9.8379H26.1095L26.1821 10.492" fill="#DDDFFF"/>
<path d="M28.4706 6.02265C28.7248 5.65929 29.197 4.89623 30.214 4.89623C30.9404 4.89623 31.3399 5.25959 31.4852 6.02265C31.6305 5.76831 31.7757 5.55027 31.9937 5.33227C32.3206 5.04158 32.7201 4.85988 33.1559 4.85988C33.9913 4.85988 34.4635 5.40495 34.4635 6.34969V9.80151H35.2262V10.4556H33.7007V6.64036C33.7007 5.87729 33.4465 5.51393 32.9017 5.51393C31.9574 5.51393 31.4488 6.64036 31.4488 7.04002V9.80153H32.2479V10.4556H30.6499V6.53137C30.6499 5.84098 30.3956 5.55032 29.8508 5.55032C29.0155 5.55032 28.398 6.60411 28.398 7.11277V9.83792H29.197V10.492H26.8362V9.83792H27.6353V5.62296H26.8362V4.96891H28.4343L28.4706 6.0227" fill="#DDDFFF"/>
<path d="M37.5867 8.16649C37.5867 9.07488 38.2768 9.80158 39.1485 9.87431C40.0928 9.87431 40.6739 9.03853 40.6739 7.6941C40.6739 6.34967 40.0565 5.55025 39.1485 5.55025C38.3494 5.55025 37.5503 6.42231 37.5503 7.22171L37.5867 8.16649ZM36.0613 2.97047H37.5867V6.13174C37.8046 5.73204 38.422 4.93258 39.3664 4.93258C40.6013 4.93258 41.5456 6.20438 41.5456 7.8031C41.5456 9.29292 40.5286 10.5646 39.3664 10.5646C38.3858 10.5646 37.9136 9.91058 37.5867 9.47456V10.492H36.0249V9.83793H36.7876V3.62449H36.0613V2.97044" fill="#DDDFFF"/>
<path d="M42.0117 2.97048H43.5735V9.83795H44.2998V10.492H41.9753V9.83795H42.7744V3.58824H42.0117V2.97053" fill="#DDDFFF"/>
<path d="M48.8405 7.29443C48.8405 6.78575 48.6589 6.31338 48.2957 5.91372C48.0415 5.69572 47.7146 5.55036 47.3877 5.58669C46.6977 5.62303 46.1165 6.09542 45.935 6.7494C45.8986 6.9311 45.826 7.11276 45.826 7.29443L48.8405 7.29443ZM49.6396 8.96589C49.567 9.29292 49.4217 9.54731 49.2037 9.80157C48.7679 10.3103 48.1505 10.601 47.4604 10.601C45.9712 10.601 44.918 9.43828 44.918 7.76683C44.918 6.16801 45.9712 4.93257 47.3151 4.93257C48.6589 4.93257 49.7485 5.98636 49.7485 7.9121H45.7896C45.8623 8.71148 46.0439 9.1839 46.4071 9.54729C46.6977 9.80155 47.0608 9.94696 47.424 9.94696C48.0415 9.94696 48.441 9.6563 48.7316 9.00217L49.6396 8.96586" fill="#DDDFFF"/>
<path d="M53.9616 4.64194L53.0173 7.83948H54.9059L53.9616 4.64194ZM53.0899 3.2975H54.8333L56.8309 9.32929H57.3757V10.492H55.7413L55.2691 8.92954H52.7267L52.2545 10.492H50.5837V9.32929H51.1286L53.0899 3.2975Z" fill="#DDDFFF"/>
<path d="M57.3027 5.00531H59.4819V6.0591H58.9371L59.6999 9.293L60.6079 5.0054H62.0244L62.9324 9.22037L63.6588 6.0591H63.114V5.00531H65.2932V6.0591H64.8211L63.6588 10.4557H62.2059L61.298 6.67686L60.4262 10.4557H58.9735L57.7748 6.0591H57.3027V5.00531Z" fill="#DDDFFF"/>
<path d="M69.1435 7.91221C67.8717 8.02112 67.0367 8.13022 67.0367 8.89317C67.0367 9.32929 67.3998 9.61994 67.9446 9.61994C68.5984 9.61994 69.1432 9.11129 69.1795 8.45724V8.42089V7.91221H69.1435ZM70.451 9.4383H70.9231V10.492H69.2161V9.83793C68.8165 10.3466 68.1991 10.601 67.5454 10.601C66.4558 10.601 65.6204 9.87431 65.6204 8.89314C65.6204 7.29442 67.4364 7.11278 69.1798 6.9674C69.1798 6.13166 68.8892 5.87734 68.1991 5.87734C67.509 5.87734 67.2548 6.20436 67.2185 6.71305V6.74939L65.911 6.71305C65.9836 5.62299 66.8553 4.93259 68.1628 4.93259C69.6883 4.93259 70.4873 5.62298 70.4873 6.85842L70.451 9.4383Z" fill="#DDDFFF"/>
<path d="M73.4983 5.87736C73.8615 5.18701 74.261 4.89631 74.8784 4.89631C75.0964 4.89631 75.278 4.93261 75.4959 4.96896V6.24076C75.278 6.20441 75.0601 6.16807 74.8422 6.16807C74.1521 6.13177 73.5709 6.64046 73.5347 7.2945V9.40198H74.1884V10.4557H71.646V9.40198H72.1908V6.05907H71.646V5.00528H73.4983V5.87734" fill="#DDDFFF"/>
<path d="M79.5633 7.07644C79.5633 6.45873 79.0549 5.98638 78.4737 5.98638H78.4373C77.8199 5.98638 77.3114 6.45873 77.2024 7.04017L79.5633 7.07644ZM80.9798 8.67516C80.7262 9.87432 79.7455 10.601 78.438 10.601C76.9126 10.601 75.7866 9.40193 75.7866 7.73047C75.7866 6.05902 76.9126 4.85995 78.438 4.85995C79.2734 4.85995 80.0724 5.25962 80.5446 5.98638C80.9078 6.60409 81.1257 7.29445 81.0894 8.02122H77.1668C77.3121 9.4383 78.2201 9.51103 78.4744 9.51103C78.9828 9.54742 79.455 9.18405 79.6003 8.71162L80.9804 8.67528" fill="#DDDFFF"/>
<path d="M94.9765 2.44573C95.0281 2.4368 95.0732 2.42017 95.1117 2.39527C95.1503 2.37046 95.1813 2.3371 95.2047 2.2949C95.2273 2.25299 95.2395 2.19877 95.2395 2.13167C95.2395 2.03901 95.2132 1.96346 95.1615 1.90529C95.1108 1.84703 95.0272 1.81799 94.9126 1.81799H94.3056V2.45851H94.8149C94.8713 2.45851 94.9258 2.45419 94.9765 2.44573ZM94.9258 1.61209C95.1005 1.61209 95.2367 1.65476 95.3353 1.74065C95.4339 1.82644 95.4828 1.94391 95.4828 2.09295C95.4828 2.20478 95.4584 2.30233 95.4076 2.38643C95.3569 2.47054 95.2761 2.52805 95.1643 2.55887V2.56385C95.2179 2.57419 95.2611 2.5912 95.2949 2.61526C95.3278 2.6395 95.3541 2.66817 95.3738 2.70153C95.3935 2.73489 95.4086 2.77219 95.418 2.81336C95.4274 2.85452 95.4349 2.89737 95.4396 2.9421C95.4433 2.98683 95.4452 3.03231 95.4471 3.07836C95.449 3.12488 95.4537 3.17027 95.4602 3.21472C95.4668 3.25935 95.4771 3.30202 95.4903 3.34205C95.5025 3.38255 95.5222 3.41798 95.5476 3.4489H95.2752C95.2583 3.43001 95.2461 3.40417 95.2404 3.37184C95.2339 3.33923 95.2301 3.30267 95.2292 3.26217C95.2273 3.22214 95.2254 3.17882 95.2235 3.1323C95.2216 3.08616 95.2169 3.04077 95.2085 2.99604C95.201 2.9514 95.1925 2.90911 95.1822 2.86871C95.1719 2.82858 95.1559 2.79343 95.1333 2.76327C95.1117 2.7331 95.0817 2.70933 95.046 2.69128C95.0103 2.67315 94.9624 2.66431 94.9023 2.66431H94.3056V3.4489H94.0613V1.61209H94.9258Z" fill="#DDDFFF"/>
<path d="M94.7445 1.10574C93.9234 1.10574 93.2553 1.77406 93.2553 2.59545C93.2553 3.41694 93.9234 4.08526 94.7445 4.08526C95.5651 4.08526 96.2339 3.41693 96.2339 2.59545C96.2339 1.77406 95.5651 1.10574 94.7445 1.10574ZM94.7445 4.37592C93.7633 4.37592 92.9648 3.57715 92.9648 2.59545C92.9648 1.61384 93.7633 0.815084 94.7445 0.815084C95.7258 0.815084 96.5242 1.61384 96.5242 2.59545C96.5242 3.57716 95.7258 4.37592 94.7445 4.37592Z" fill="#DDDFFF"/>
<path d="M81.7407 9.77225H82.4194V10.4366H81.7407V9.77225Z" fill="#DDDFFF"/>
<path d="M84.8058 10.0351C85.5501 10.0351 85.9951 9.4365 85.9951 8.45103C85.9951 7.52399 85.5281 6.93266 84.8058 6.93266C84.098 6.93266 83.6602 7.52401 83.6602 8.48026C83.6602 9.4584 84.0907 10.0351 84.8058 10.0351ZM83.0254 8.4656C83.0254 7.26851 83.7624 6.44354 84.8276 6.44354C85.8711 6.44354 86.63 7.29765 86.63 8.4656C86.63 9.68478 85.8857 10.5242 84.8131 10.5242C83.7477 10.5242 83.0254 9.69203 83.0254 8.4656Z" fill="#DDDFFF"/>
<path d="M88.1627 7.40712C88.3524 6.99832 88.4546 6.87424 88.6297 6.70638C88.834 6.5311 89.0894 6.43621 89.3447 6.43621C89.4396 6.43621 89.571 6.45083 89.768 6.48008V7.05675C89.571 7.02023 89.4542 7.00566 89.3521 7.00566C88.2868 7.00566 88.1627 8.10793 88.1627 8.16638V9.97673H88.834V10.4366H87.039V9.97673H87.6009V6.9691H87.0171V6.50189H88.1627V7.40709" fill="#DDDFFF"/>
<path d="M92.8472 7.95469C92.8472 7.52404 92.3219 6.91086 91.7236 6.91086C91.0815 6.91086 90.6874 7.4364 90.6874 8.29054C90.6874 9.15921 91.0887 9.68488 91.76 9.68488C92.3365 9.68488 92.8472 9.12274 92.8472 8.66285V7.95469ZM92.8472 9.47316C92.4897 9.97682 92.0958 10.1446 91.6652 10.1446C90.7239 10.1446 90.0745 9.37089 90.0745 8.25396C90.0745 7.19547 90.7093 6.44361 91.5995 6.44361C92.3219 6.44361 92.643 6.90348 92.8472 7.20283V6.50198H93.9563V6.96919H93.4091V10.1958C93.4091 11.1447 92.8032 11.6849 91.7381 11.6849C91.0886 11.6849 90.5341 11.4002 90.2714 10.9403C90.2203 10.8454 90.1766 10.7505 90.1109 10.5534H90.7457C90.9792 11.0279 91.2565 11.203 91.7818 11.203C92.4458 11.203 92.8471 10.86 92.8471 10.2906V9.47305" fill="#DDDFFF"/>
</svg>
