<svg width="26" height="24" viewBox="0 0 26 24" fill="none" xmlns="http://www.w3.org/2000/svg">
<path d="M25.5301 12.2129C25.4888 12.2346 25.4867 12.2803 25.4671 12.315C25.3411 12.5476 25.0912 12.6584 24.8412 12.5932C24.5935 12.528 24.424 12.2998 24.4327 12.0412C24.4414 11.7891 24.6218 11.5696 24.8651 11.5217C25.1238 11.4696 25.3758 11.6 25.4845 11.8412C25.4997 11.8738 25.4975 11.9151 25.5301 11.939C25.5301 12.0303 25.5301 12.1216 25.5301 12.2129Z" fill="#7E77AC"/>
<path d="M0.239258 11.9914C0.25447 11.9588 0.271854 11.9241 0.287066 11.8915C0.397895 11.6546 0.643457 11.5263 0.897712 11.5785C1.14979 11.6307 1.33451 11.848 1.34103 12.1023C1.34537 12.3566 1.16935 12.5913 0.928135 12.6522C0.676054 12.7152 0.426146 12.6 0.302278 12.3674C0.28272 12.3327 0.280547 12.287 0.241431 12.2631C0.239258 12.1718 0.239258 12.0806 0.239258 11.9914Z" fill="#7E77AC"/>
<path d="M7.17164 12.102C7.17381 11.15 7.93223 10.3915 8.88405 10.3915C9.82718 10.3937 10.5834 11.1565 10.5791 12.1042C10.5747 13.0604 9.81849 13.7994 8.84276 13.7994C7.92788 13.7972 7.16946 13.0278 7.17164 12.102Z" fill="#7E77AC"/>
<path d="M9.17946 15.5599C9.18164 14.6232 9.95092 13.8625 10.894 13.8647C11.835 13.8668 12.5913 14.6319 12.5891 15.5773C12.5869 16.5184 11.822 17.2769 10.8767 17.2725C9.93571 17.2704 9.17512 16.5032 9.17946 15.5599Z" fill="#7E77AC"/>
<path d="M12.5718 8.61836C12.5697 9.56379 11.8112 10.3201 10.8659 10.3158C9.92496 10.3136 9.16003 9.54423 9.16655 8.60532C9.17306 7.66641 9.94235 6.89921 10.8768 6.90355C11.8178 6.90573 12.5762 7.67293 12.5718 8.61836Z" fill="#7E77AC"/>
<path d="M13.1931 15.5557C13.1975 14.6125 13.9646 13.8561 14.9077 13.8605C15.8487 13.8648 16.6115 14.6364 16.6028 15.5753C16.5941 16.5098 15.8313 17.2683 14.8947 17.2662C13.9581 17.2662 13.1888 16.4924 13.1931 15.5557Z" fill="#7E77AC"/>
<path d="M16.8898 13.7782C15.9727 13.7891 15.21 13.0349 15.1969 12.1047C15.1839 11.1615 15.9249 10.3943 16.8637 10.379C17.8112 10.3638 18.5827 11.1028 18.5935 12.0373C18.6066 13.0089 17.8655 13.7652 16.8898 13.7782Z" fill="#7E77AC"/>
<path d="M13.1802 8.60482C13.1802 7.66591 13.9473 6.90304 14.8882 6.90522C15.8205 6.90739 16.5833 7.6746 16.5811 8.60699C16.5789 9.54372 15.8183 10.3066 14.8839 10.3066C13.9429 10.3066 13.1802 9.5459 13.1802 8.60482Z" fill="#7E77AC"/>
<path d="M6.92586 7.66605C7.48001 7.66823 7.92333 8.11377 7.92333 8.66581C7.92115 9.22437 7.47132 9.67209 6.915 9.66775C6.36737 9.66123 5.91971 9.20916 5.92188 8.66147C5.92406 8.10943 6.37389 7.66388 6.92586 7.66605Z" fill="#7E77AC"/>
<path d="M18.8412 16.5119C18.2871 16.5075 17.8438 16.062 17.846 15.5099C17.8481 14.9514 18.3001 14.5037 18.8565 14.5102C19.4041 14.5167 19.8517 14.9709 19.8474 15.5186C19.843 16.0707 19.3932 16.5162 18.8412 16.5119Z" fill="#7E77AC"/>
<path d="M13.8279 18.9635C13.8279 19.5242 13.3846 19.9676 12.8261 19.9676C12.2763 19.9676 11.8264 19.5177 11.8286 18.97C11.8308 18.4114 12.2698 17.9681 12.8196 17.9681C13.3824 17.9659 13.8279 18.4049 13.8279 18.9635Z" fill="#7E77AC"/>
<path d="M12.8673 6.20974C12.3066 6.20756 11.8677 5.76636 11.8677 5.20563C11.8677 4.65141 12.3132 4.20804 12.8651 4.21021C13.4215 4.21239 13.8648 4.65359 13.8669 5.20345C13.8648 5.76636 13.4236 6.21191 12.8673 6.20974Z" fill="#7E77AC"/>
<path d="M6.93908 16.5401C6.38711 16.5379 5.94163 16.0946 5.93945 15.5447C5.93945 14.9905 6.39581 14.5341 6.9456 14.5406C7.49323 14.5471 7.94523 15.0014 7.94089 15.5469C7.93654 16.0946 7.48888 16.5423 6.93908 16.5401Z" fill="#7E77AC"/>
<path d="M19.8279 8.63133C19.8279 9.1812 19.3824 9.63326 18.8369 9.63761C18.2871 9.64196 17.8264 9.18337 17.8264 8.63567C17.8286 8.0858 18.2741 7.64026 18.8261 7.64026C19.3824 7.64026 19.8279 8.08146 19.8279 8.63133Z" fill="#7E77AC"/>
<path d="M16.5137 19.813C16.5115 19.3436 16.8875 18.9589 17.3547 18.9567C17.8306 18.9524 18.2174 19.3327 18.2196 19.8022C18.2217 20.276 17.8393 20.6607 17.3655 20.6607C16.9005 20.6585 16.518 20.2782 16.5137 19.813Z" fill="#7E77AC"/>
<path d="M8.44721 18.9762C8.91661 18.9805 9.29473 19.363 9.29038 19.8281C9.28604 20.2976 8.89487 20.6823 8.42548 20.6779C7.95609 20.6736 7.58231 20.2911 7.58448 19.8216C7.58666 19.3478 7.96912 18.9718 8.44721 18.9762Z" fill="#7E77AC"/>
<path d="M17.3308 5.20189C16.8615 5.20189 16.479 4.8259 16.4768 4.35862C16.4746 3.88917 16.8615 3.5023 17.3308 3.50013C17.8024 3.49796 18.1849 3.88482 18.1805 4.35862C18.1805 4.82807 17.8046 5.20189 17.3308 5.20189Z" fill="#7E77AC"/>
<path d="M3.9576 12.9605C3.48603 12.9584 3.11008 12.5846 3.10791 12.1151C3.10791 11.6413 3.48821 11.2588 3.96195 11.261C4.43786 11.2631 4.81381 11.6435 4.80946 12.1195C4.80729 12.5932 4.43134 12.9627 3.9576 12.9605Z" fill="#7E77AC"/>
<path d="M21.8162 11.2221C22.2856 11.2265 22.6637 11.6068 22.6594 12.0741C22.6551 12.5435 22.2617 12.9326 21.7967 12.9239C21.3208 12.9152 20.9513 12.5327 20.9578 12.0567C20.9665 11.5872 21.3447 11.2178 21.8162 11.2221Z" fill="#7E77AC"/>
<path d="M9.25559 4.37578C9.25342 4.84741 8.87529 5.22341 8.4059 5.22124C7.93651 5.21906 7.55838 4.83654 7.56056 4.36926C7.56273 3.89981 7.9452 3.51946 8.41242 3.52381C8.88181 3.52598 9.25776 3.90633 9.25559 4.37578Z" fill="#7E77AC"/>
<path d="M3.37952 16.9029C3.76851 16.9007 4.08578 17.2072 4.09013 17.5919C4.09448 17.9831 3.78155 18.3047 3.39038 18.3047C3.00574 18.3069 2.68846 17.9918 2.68629 17.6093C2.68412 17.2224 2.99487 16.9051 3.37952 16.9029Z" fill="#7E77AC"/>
<path d="M23.1092 17.5617C23.1092 17.9442 22.7963 18.2593 22.4116 18.2637C22.0227 18.268 21.7032 17.9485 21.7076 17.5595C21.7097 17.177 22.027 16.864 22.4116 16.864C22.7963 16.864 23.1092 17.177 23.1092 17.5617Z" fill="#7E77AC"/>
<path d="M2.66017 6.61213C2.66017 6.22961 2.97527 5.91664 3.35991 5.91447C3.74455 5.9123 4.05748 6.22526 4.06183 6.60995C4.064 6.99682 3.74455 7.31631 3.35556 7.31413C2.96875 7.31196 2.65799 6.99899 2.66017 6.61213Z" fill="#7E77AC"/>
<path d="M12.8413 23.7751C12.4567 23.7773 12.1372 23.4621 12.1372 23.0818C12.1372 22.6928 12.4567 22.3711 12.8413 22.3711C13.2194 22.3733 13.5367 22.6928 13.5389 23.0753C13.5432 23.4556 13.2259 23.7729 12.8413 23.7751Z" fill="#7E77AC"/>
<path d="M13.5582 1.09602C13.5582 1.48506 13.2387 1.80672 12.8541 1.80672C12.476 1.80672 12.1587 1.48506 12.1543 1.10254C12.15 0.722199 12.4673 0.404883 12.8519 0.40271C13.2387 0.40271 13.5582 0.71568 13.5582 1.09602Z" fill="#7E77AC"/>
<path d="M22.3789 7.27473C21.9899 7.27255 21.677 6.96393 21.677 6.58141C21.677 6.18803 21.9899 5.87723 22.3833 5.87941C22.7723 5.88158 23.083 6.19455 23.0808 6.57924C23.0765 6.96611 22.7657 7.2769 22.3789 7.27473Z" fill="#7E77AC"/>
<path d="M19.4561 1.59589C19.4583 1.89799 19.2105 2.14793 18.9085 2.15228C18.6042 2.15445 18.3587 1.90234 18.3609 1.5872C18.363 1.28509 18.5999 1.04819 18.9041 1.04602C19.2018 1.04602 19.4539 1.29596 19.4561 1.59589Z" fill="#7E77AC"/>
<path d="M7.36261 1.61776C7.36479 1.92421 7.12357 2.17197 6.82151 2.17632C6.5238 2.18067 6.26954 1.93073 6.26519 1.62862C6.26085 1.32218 6.50206 1.07441 6.80847 1.07224C7.11488 1.07224 7.36044 1.31131 7.36261 1.61776Z" fill="#7E77AC"/>
<path d="M19.5039 22.567C19.4996 22.8712 19.2475 23.1125 18.9432 23.1038C18.6347 23.0951 18.3978 22.8473 18.4065 22.5409C18.4152 22.2344 18.6651 21.9932 18.9671 21.9997C19.267 22.0084 19.5083 22.2627 19.5039 22.567Z" fill="#7E77AC"/>
<path d="M7.40625 22.58C7.40408 22.8777 7.152 23.1255 6.85211 23.1255C6.55005 23.1233 6.30884 22.8778 6.30884 22.5713C6.31101 22.2692 6.55874 22.0236 6.8608 22.0258C7.16286 22.0279 7.40625 22.2779 7.40625 22.58Z" fill="#7E77AC"/>
</svg>
