<svg width="21" height="17" viewBox="0 0 21 17" fill="none" xmlns="http://www.w3.org/2000/svg">
<path d="M6.50629 16.7828C14.4289 16.7828 18.7634 10.6418 18.7634 5.31806C18.7634 5.28295 18.7632 5.24768 18.7629 5.21232C18.7604 4.95386 18.8832 4.70986 19.0902 4.55499C19.5007 4.24774 19.8804 3.90677 20.2249 3.53639C20.4338 3.31182 20.1899 2.97604 19.8946 3.05914C19.5751 3.14908 19.3623 2.65562 19.5785 2.40369C19.678 2.28762 19.7708 2.16643 19.8562 2.04065C20.0614 1.73854 19.7229 1.42549 19.385 1.56412C18.9579 1.73937 18.516 1.88217 18.0637 1.991C17.7667 2.06245 17.4616 1.95831 17.2215 1.76948C16.6294 1.30378 15.9117 0.993617 15.1421 0.875775C14.2065 0.732496 13.2464 0.881503 12.4104 1.29976C11.5744 1.71802 10.909 2.38222 10.517 3.18969C9.94083 4.37668 8.90896 5.70338 7.63059 5.37673C6.83618 5.17374 6.06353 4.8957 5.32489 4.54566C4.73539 4.2663 4.17263 3.94348 3.6416 3.58098C2.38899 2.7259 0.528143 3.02283 0.893054 4.49491C1.03028 5.04849 1.28954 5.56347 1.64854 6.00965C1.89223 6.31253 1.68642 6.81097 1.31957 6.68235C1.13805 6.61871 0.96085 6.54353 0.789244 6.45713C0.768931 6.44691 0.744824 6.46159 0.744824 6.48433C0.744211 7.41512 1.08824 8.31739 1.71842 9.03776C2.04294 9.40872 2.43302 9.71965 2.86831 9.95909C3.16404 10.1218 3.12947 10.5899 2.79258 10.5693C2.55206 10.5546 2.35852 10.7851 2.46757 10.9999C2.76883 11.5936 3.2218 12.112 3.78995 12.5076C4.49464 12.9981 4.74982 14.2502 3.93829 14.5307C2.9817 14.8614 1.96342 15.0334 0.929394 15.0318C0.688791 15.0315 0.589748 15.36 0.805596 15.4663C2.55856 16.3296 4.51473 16.7837 6.50629 16.7828Z" fill="url(#paint0_linear_2364_637)"/>
<defs>
<linearGradient id="paint0_linear_2364_637" x1="20.8999" y1="0.822754" x2="0.839535" y2="17.8873" gradientUnits="userSpaceOnUse">
<stop stop-color="#FFCEA8"/>
<stop offset="0.505208" stop-color="#C3A6FC"/>
<stop offset="1" stop-color="#80FEF7"/>
</linearGradient>
</defs>
</svg>
